<svg xmlns="http://www.w3.org/2000/svg" fill="none" viewBox="0 0 94 36"><path fill="#0076FB" d="M63.058 13.502c4.173 0 5.834 2.674 5.834 5.999 0 3.888-2.619 5.999-5.834 5.999-3.938 0-5.834-2.357-5.834-6 0-3.43 1.463-5.998 5.834-5.998Zm12.879 0c4.172 0 5.834 2.674 5.834 5.999 0 3.888-2.619 5.999-5.834 5.999-3.938 0-5.834-2.357-5.834-6 0-3.43 1.463-5.998 5.834-5.998Zm-62.245-.159c1.373 0 2.6.704 3.486 1.83v-1.495h3.36v11.417h-3.342l.018-1.477c-.885 1.143-2.15 1.864-3.522 1.864-2.692 0-4.877-2.34-4.877-6.07 0-3.764 2.185-6.069 4.877-6.069Zm34.085-5.7-.018 7.548c.885-1.144 2.15-1.865 3.522-1.865 2.691 0 4.877 2.34 4.877 6.07 0 3.764-2.186 6.069-4.877 6.069-1.373 0-2.601-.704-3.486-1.83v1.513l-3.486-.07V8.03l3.468-.387Zm-10.188 5.77c6.495.052 5.372 6.763 5.296 7.176l-.003.02v-.017H35.44s-.163 2.04 1.878 2.216c2.023.176 4.606-.598 4.606-.598l.74 2.305s-2.42 1.196-5.599.827c-3.197-.37-5.057-1.513-5.202-5.454 0 0-.975-6.51 5.726-6.474Zm-14.035 1.355c1.97-1.759 6.358-1.583 7.803-.545l-.848 2.463s-.633-.616-2.44-.598c0 0-2.672-.159-2.672 3.22v.175c0 3.36 2.673 3.22 2.673 3.22 1.806.035 2.439-.58 2.439-.598l.848 2.463c-1.463 1.038-5.834 1.213-7.803-.546-1.698-1.513-1.698-3.993-1.662-4.627-.036-.633-.036-3.096 1.662-4.627Zm62.986-7.16V18.78l3.558-5.138h3.74l-3.65 5.736L94 25.13h-3.613l-3.847-5.84v5.84h-3.504V7.96l3.504-.352ZM6.369 7.502h2.464v2.78H7.26s-1.427-.193-1.427 1.144v2.181h2.999l-.361 3.026H5.816v8.445H2.348V16.58H0v-2.974h2.439v-2.533s-.308-1.39.975-2.533c1.233-1.1 2.834-1.045 2.955-1.039Zm8.389 8.621c-1.229 0-2.24 1.09-2.24 2.234v2.182c0 1.143.993 2.234 2.24 2.234 1.228 0 2.24-1.09 2.24-2.234v-2.182c0-1.143-.994-2.234-2.24-2.234Zm48.264-.053c-1.283 0-2.312 1.091-2.312 2.235v2.181c0 1.144 1.047 2.234 2.312 2.234 1.282 0 2.312-1.09 2.312-2.234v-2.181c0-1.144-1.048-2.235-2.312-2.235Zm12.879 0c-1.283 0-2.312 1.091-2.312 2.235v2.181c0 1.144 1.047 2.234 2.312 2.234 1.282 0 2.312-1.09 2.312-2.234v-2.181c0-1.144-1.048-2.235-2.312-2.235Zm-25.668-.017c-1.228 0-2.24 1.09-2.24 2.234v2.181c0 1.144 1.012 2.235 2.24 2.235 1.229 0 2.24-1.091 2.24-2.235v-2.181c0-1.144-1.011-2.234-2.24-2.234Zm-12.698-.282c-2.348 0-2.168 2.534-2.168 2.534h4.336s.18-2.534-2.168-2.534Z"/></svg>